<svg width="456" height="332" viewBox="0 0 456 332" fill="none" xmlns="http://www.w3.org/2000/svg">
<path opacity="0.4" d="M155.079 88.5588C155.079 88.5588 136.893 117.298 104.141 104.197C71.3894 91.0952 23.1421 123.389 45.3846 164.433C67.6272 205.477 126.207 175.943 154.169 167.847C182.131 159.751 221.091 67.8404 155.079 88.5588Z" fill="#A8C4E5"/>
<path opacity="0.4" d="M165.171 316.575C207.796 316.575 242.35 297.626 242.35 274.253C242.35 250.879 207.796 231.931 165.171 231.931C122.546 231.931 87.9915 250.879 87.9915 274.253C87.9915 297.626 122.546 316.575 165.171 316.575Z" fill="#A8C4E5"/>
<path d="M69.5459 263.099C69.5459 242.34 82.5165 219.183 99.9249 209.134C107.911 204.523 114.887 203.801 120.104 206.363L120.108 206.355L120.195 206.405C120.682 206.649 121.155 206.919 121.609 207.219L163.77 231.499C163.77 231.499 152.167 264.482 150.661 264.985C149.154 265.487 120.447 307.994 120.447 307.994L79.297 284.356C78.839 284.129 78.3983 283.869 77.9691 283.592L77.8613 283.53L77.8652 283.523C72.6558 280.099 69.5459 273.063 69.5459 263.099Z" fill="url(#paint0_linear)"/>
<path d="M142.759 306.423C125.35 316.473 112.382 308.296 112.382 287.929C112.382 267.171 125.352 244.014 142.759 233.965C160.167 223.915 172.795 232.29 172.795 253.049C172.795 273.414 160.165 296.372 142.759 306.423Z" fill="#DB9833"/>
<path d="M118.973 224.056L85.709 208.801L71.3374 41.6239L130.223 10.9004L168.461 31.4283L118.973 224.056Z" fill="#F7C750"/>
<path d="M118.973 224.056L85.709 208.801L71.3374 41.6239L109.576 62.1518L118.973 224.056Z" fill="#F5BC51"/>
<path d="M159.043 203.472L118.975 224.056L111.568 115.988L109.578 62.1517L168.462 31.4282L166.472 87.3386L159.043 203.472Z" fill="#DB9833"/>
<path opacity="0.4" d="M357.685 320.999C399.376 320.999 433.174 302.051 433.174 278.677C433.174 255.303 399.376 236.355 357.685 236.355C315.993 236.355 282.195 255.303 282.195 278.677C282.195 302.051 315.993 320.999 357.685 320.999Z" fill="#A8C4E5"/>
<path d="M353.025 11.2411C328.312 -3.02665 307.126 -2.7938 291.359 6.78793L291.353 6.78408L241.536 35.7371L329.174 72.2608L351.432 117.283C339.079 126.318 325.035 136.912 325.735 164.474L302.246 199.088L314.421 213.287L279.616 233.332C279.616 233.332 295.883 263.709 297.394 264.213C298.905 264.717 323.809 309.527 323.809 309.527L368.902 283.621C369.36 283.392 369.803 283.134 370.234 282.857L370.341 282.795L370.338 282.787C375.559 279.358 378.674 272.307 378.674 262.323C378.674 242.476 366.837 220.449 350.601 209.723L370.467 198.32C366.362 149.246 417.667 164.347 417.667 115.68C417.667 69.3645 389.622 32.3693 353.025 11.2411Z" fill="url(#paint1_linear)"/>
<path d="M323.281 118.645C323.281 102.553 314.046 88.5877 300.365 80.6898C287.71 73.3847 278.475 75.5092 269.242 80.7745L241.536 35.7371C257.61 23.8249 280.184 22.3354 306.862 37.7385C343.459 58.8668 371.506 95.862 371.506 142.173C371.506 190.84 320.202 175.741 324.305 224.814L280.184 199.34C273.345 141.621 323.281 148.081 323.281 118.645ZM271.976 253.863C271.976 233.062 284.631 224.668 302.074 234.74C319.517 244.811 332.515 268.015 332.515 288.817C332.515 309.225 319.517 317.419 302.074 307.349C284.631 297.276 271.976 274.272 271.976 253.863Z" fill="#5CA7FF"/>
<path d="M71.3374 41.6239L109.576 62.1518" stroke="white" stroke-miterlimit="10"/>
<path d="M117.112 301.641C115.98 298.433 115.37 294.59 115.37 290.175C115.37 269.416 128.341 246.26 145.747 236.211C152.169 232.502 157.941 231.303 162.667 232.308" stroke="white" stroke-miterlimit="10"/>
<path d="M288.194 228.345C292.92 227.341 298.691 228.542 305.113 232.248C322.522 242.297 335.49 265.456 335.49 286.213C335.49 290.628 334.88 294.471 333.749 297.679" stroke="white" stroke-miterlimit="10"/>
<path d="M252.811 29.5539C252.811 29.5539 279.199 16.2331 316.667 43.9236C354.136 71.6142 363.198 99.9784 363.198 99.9784" stroke="white" stroke-miterlimit="10"/>
<path d="M433.744 272.69L420.729 274.961V261.367L433.744 259.096V272.69Z" fill="#27427A"/>
<path d="M443.545 244.703L438.83 236.474L445.213 236.501L449.509 243.395L447.092 247.582L443.545 244.703Z" fill="#ED5353"/>
<path d="M408.984 251.433L412.294 244.064L405.339 240.864L403.315 250.594L408.984 251.433Z" fill="#ED5353"/>
<path d="M447.107 259.92C448.475 259.333 450.073 259.972 450.66 261.338L452.078 264.644C452.665 266.012 452.026 267.61 450.658 268.197C449.291 268.784 447.692 268.145 447.105 266.776L445.687 263.47C445.102 262.106 445.741 260.507 447.107 259.92Z" fill="#ED5353"/>
<path d="M450.227 260.524C450.227 260.524 451.327 247.763 449.932 244.143C448.537 240.523 443.545 244.703 443.545 244.703L446.141 260.997L450.227 260.524Z" fill="#ED5353"/>
<path opacity="0.4" d="M438.352 323.63C438.523 319.26 431.53 315.438 422.733 315.094C413.935 314.749 406.665 318.013 406.494 322.383C406.323 326.753 413.316 330.575 422.114 330.919C430.911 331.263 438.181 328 438.352 323.63Z" fill="#A8C4E5"/>
<path opacity="0.4" d="M453.248 324.597C453.368 321.526 448.454 318.84 442.272 318.598C436.09 318.356 430.982 320.65 430.861 323.721C430.741 326.792 435.655 329.478 441.837 329.72C448.019 329.962 453.127 327.668 453.248 324.597Z" fill="#A8C4E5"/>
<path d="M422.234 321.189L417.652 321.957C414.296 321.503 412.612 320.91 411.525 322.063L411.217 322.39C410.812 323.195 411.449 324.482 412.681 324.961L421.807 328.604C423.589 329.028 425.461 328.412 425.471 326.818C425.471 326.818 425.461 322.36 424.647 322.182C423.013 321.83 423.66 321.528 422.234 321.189Z" fill="#27427A"/>
<path d="M419.853 323.372C419.877 325.24 424.422 325.186 424.399 323.318L424.326 317.244L419.78 317.298L419.853 323.372Z" fill="#A8ACBA"/>
<path d="M418.822 317.939C420.411 320.089 424.353 320.052 425.201 318.597C425.694 310.007 428.592 300.858 425.28 289.046L429.121 253.217L413.11 256.417L416.665 294.242L418.822 317.939Z" fill="#27427A"/>
<path d="M449.426 315.505C450.444 316.865 454.251 314.377 453.233 313.016L449.924 308.594L446.118 311.082L449.426 315.505Z" fill="#A8ACBA"/>
<path d="M446.953 312.514C449.186 313.848 452.195 310.111 452.503 308.592C449.817 301.079 448.052 290.231 441.041 285.947L438.062 265.752C438.316 262.652 437.741 260.189 436.461 255.653L424.957 262.427L435.212 292.91C435.397 293.46 435.643 293.988 435.945 294.482L446.953 312.514Z" fill="#27427A"/>
<path d="M421.195 214.335C420.902 218.005 423.015 219.86 425.913 218.483C428.812 217.105 430.113 212.663 430.407 208.993C430.7 205.323 429.874 203.815 426.976 205.194C424.076 206.574 421.489 210.666 421.195 214.335Z" fill="#ED5353"/>
<path d="M416.553 212.781C416.655 216.46 420.011 218.644 422.746 216.962C425.48 215.28 427.613 210.933 427.511 207.254C427.409 203.574 425.107 201.956 422.374 203.638C419.64 205.32 416.451 209.101 416.553 212.781Z" fill="#ED5353"/>
<path d="M425.361 224.11L425.736 224.012C427.007 223.682 427.778 222.374 427.449 221.104L425.596 213.939C425.267 212.669 423.958 211.897 422.688 212.226L422.313 212.324C421.043 212.654 420.271 213.962 420.6 215.232L421.37 222.378C421.697 223.65 424.091 224.439 425.361 224.11Z" fill="#ED5353"/>
<path d="M429.114 216.025C429.114 216.025 428.429 218.506 423.91 217.998C420.5 217.615 422.946 211.767 419.824 210.317C415.604 208.358 417.269 204.227 419.136 202.878C421.002 201.529 423.373 202.308 426.293 203.286C429.381 204.319 433.588 206.709 429.114 216.025Z" fill="#27427A"/>
<path d="M421.061 213.305C421.886 212.958 422.274 212.008 421.927 211.183C421.58 210.358 420.63 209.971 419.805 210.317C418.98 210.664 418.592 211.614 418.939 212.439C419.286 213.264 420.236 213.652 421.061 213.305Z" fill="#ED5353"/>
<path d="M438.365 258.736C437.976 249.703 436.617 243.801 437.058 235.989C436.887 221.065 437.123 220.661 433.831 219.714L428.438 219.112C427.417 219.306 426.47 219.778 425.457 220.024C421.226 221.06 418.512 221.291 415.472 222.936C412.764 224.402 412.608 228.32 412.614 231.602C411.883 241.222 411.688 255.703 411.553 260.451C413.095 267.252 435.79 263.339 438.365 258.736Z" fill="#F7C750"/>
<path d="M419.809 217.407L420.402 216.643C420.402 216.643 419.569 217.136 418.35 216.651C418.35 216.651 418.985 217.268 419.809 217.407Z" fill="#BA4141"/>
<path d="M437.216 221.09L447.519 238.374C449.417 242.144 441.49 246.889 439.687 242.169C439.573 241.87 431.312 221.725 431.312 221.725C431.312 221.725 432.712 217.653 437.216 221.09Z" fill="#F7C750"/>
<path d="M411.469 232.727L413.951 235.406C416.867 247.17 415.516 259.096 420.296 264.115C417.371 264.107 414.692 263.722 412.71 262.263C412.604 262.277 411.69 261.465 411.557 259.996L411.469 232.727Z" fill="#E69F35"/>
<path d="M428.996 218.916C428.996 218.916 429.787 221.079 427.239 221.885C424.691 222.689 420.481 221.273 420.481 221.273C420.481 221.273 423.285 218.335 428.996 218.916Z" fill="white"/>
<path d="M419.828 212.931C420.123 212.969 420.396 212.761 420.437 212.467L421.395 209.03C421.435 208.735 420.668 208.909 420.373 208.87C420.079 208.832 419.236 208.564 419.195 208.858L419.365 212.324C419.324 212.619 419.534 212.892 419.828 212.931Z" fill="#27427A"/>
<path d="M437.058 235.991L436.748 229.823C440.789 234.311 443.836 238.903 444.357 243.754C444.357 243.754 441.247 245.304 439.8 242.442L437.058 235.991Z" fill="#E69F35"/>
<path d="M446.403 236.501C446.541 239.369 441.73 242.147 439.086 240.593" stroke="white" stroke-width="2.9223" stroke-miterlimit="10" stroke-linecap="round" stroke-linejoin="round"/>
<path d="M395.18 260.943C396.529 261.584 397.107 263.212 396.466 264.559L394.915 267.817C394.274 269.164 392.646 269.742 391.299 269.101C389.952 268.46 389.374 266.832 390.015 265.485L391.566 262.227C392.205 260.88 393.833 260.302 395.18 260.943Z" fill="#ED5353"/>
<path d="M396.474 264.542C396.474 264.542 406.892 255.934 408.696 252.485C410.499 249.037 403.317 247.17 403.317 247.17L392.675 261.038L396.474 264.542Z" fill="#ED5353"/>
<path d="M420.523 232.727L411.823 248.061C410.241 251.987 400.167 248.219 402.528 243.733C402.676 243.45 414.409 223.769 414.409 223.769C414.409 223.769 420.131 227.06 420.523 232.727Z" fill="#F7C750"/>
<path d="M411.244 245.04C409.177 247.043 403.896 245.261 403.315 242.24" stroke="white" stroke-width="2.9311" stroke-miterlimit="10" stroke-linecap="round" stroke-linejoin="round"/>
<path d="M449.259 315.503L449.193 319.715C448.239 322.635 446.049 322.981 446.901 324.14L447.621 324.769C448.341 325.5 450.746 325.275 451.245 324.634L455.473 318.226C456.141 316.706 455.669 314.806 454.541 313.777C454.541 313.777 453.289 312.531 452.652 312.514C451.139 312.472 449.794 314.285 449.259 315.503Z" fill="#27427A"/>
<path d="M194.482 165.547C193.512 165.69 192.834 166.6 192.977 167.57L193.473 170.942C193.616 171.912 194.526 172.587 195.494 172.447C196.464 172.304 197.141 171.394 196.999 170.424L196.502 167.052C196.36 166.082 195.45 165.405 194.482 165.547Z" fill="#ED5353"/>
<path d="M221.697 190.738C221.697 190.738 206.967 193.329 205.53 189.428C204.092 185.527 197.986 170.799 197.986 170.799L192.958 171.996C192.958 171.996 197.388 197.499 201.579 199.654C205.77 201.81 219.18 201.392 219.18 201.392L221.697 190.738Z" fill="#94B7E0"/>
<path opacity="0.4" d="M246.343 291.624C242.061 289.311 234.897 289.142 230.087 291.191C229.654 290.208 228.717 289.269 227.258 288.482C222.848 286.099 215.379 285.992 210.578 288.237C205.776 290.483 205.457 294.236 209.866 296.616C214.147 298.93 221.312 299.099 226.121 297.049C226.554 298.033 227.491 298.97 228.95 299.759C233.361 302.141 240.83 302.249 245.631 300.003C250.434 297.758 250.754 294.005 246.343 291.624Z" fill="#A8C4E5"/>
<path d="M231.502 190.173C231.502 190.173 235.006 191.148 235.002 192.946C234.998 194.745 234.654 196.404 234.654 196.404L222.876 193.921L224.097 189.058L231.502 190.173Z" fill="#27427A"/>
<path d="M213.035 288.863L219.553 284.394C220.531 284.079 221.705 284.015 223.046 284.408C223.648 284.585 223.76 284.133 223.71 284.698L224.272 287.096C224.82 288.701 223.55 289.667 221.716 290.222L215.485 292.004C214.194 292.421 212.375 292.186 211.442 291.48L211.178 291.28C210.247 290.574 211.655 289.61 213.035 288.863Z" fill="#27427A"/>
<path d="M223.677 285.135C223.571 286.994 219.049 286.736 219.155 284.877L219.499 278.835L224.022 279.093L223.677 285.135Z" fill="#6F7996"/>
<path d="M224.408 282.835C222.507 284.25 220.613 284.19 218.728 282.685C218.728 282.685 215.55 245.317 216.607 226.125L230.861 221.673C229.073 233.441 225.192 252.764 225.192 252.764C229.327 262.452 225.6 274.437 224.408 282.835Z" fill="#27427A"/>
<path d="M230.863 221.676L226.866 222.924C225.771 229.897 224.066 239.011 222.85 245.325C222.057 249.439 222.128 253.65 222.85 257.776C224.351 266.349 221.599 275.84 220.604 282.838C220.323 283.047 220.042 283.221 219.759 283.365C221.302 284.164 222.852 283.994 224.407 282.838C225.467 275.373 228.529 265.073 226.292 256.073C225.627 253.39 225.629 250.586 226.156 247.875C227.426 241.364 229.637 229.745 230.863 221.676Z" fill="#223A6B"/>
<path d="M239.781 289.792C239.971 291.644 235.466 292.111 235.276 290.258L234.654 284.238L239.159 283.773L239.781 289.792Z" fill="#6F7996"/>
<path d="M240.119 287.531C238.18 289.115 236.296 289.39 234.475 288.176C234.475 288.176 232.859 275.765 230.316 262.547C228.35 252.316 225.436 242.04 224.766 233.896L238.008 226.177C237.891 233.415 238.43 249.347 238.68 256.182C238.738 257.78 239.14 259.337 239.838 260.774C242.883 267.036 240.119 287.531 240.119 287.531Z" fill="#27427A"/>
<path d="M215.475 227.02C215.929 220.432 216.006 210.897 215.593 202.622C216.378 191.256 220.962 187.347 227.942 190.454L230.846 191.443C239.167 196.694 243.572 196.764 241.393 205.803L239.346 227.478C238.634 237.8 214.088 239.115 215.475 227.02Z" fill="#94B7E0"/>
<path d="M241.393 205.805L239.346 227.48C238.93 233.497 230.411 236.453 223.654 235.474C231.652 231.467 237.173 220.469 241.393 205.805Z" fill="#628FC4"/>
<path d="M234.317 193.454C234.317 193.454 234.546 196.596 229.818 198.844C227.378 200.004 226.042 202.181 225.321 204.017C224.899 205.089 224.299 204.492 224.268 203.324C224.187 200.285 224.152 199.404 223.696 197.124C222.961 193.436 224.938 188.219 225.136 188.196C225.336 188.175 234.317 193.454 234.317 193.454Z" fill="white"/>
<path d="M228.28 190.633C228.28 190.633 223.837 191.641 224.485 195.798L224.172 200.628C224.172 200.628 221.283 194.878 223.281 189.894C225.278 184.909 228.28 190.633 228.28 190.633Z" fill="#27427A"/>
<path d="M226.475 190.677C226.475 190.677 227.16 191.995 227.639 192.291C228.119 192.588 235.327 190.09 235.131 184.305C235.008 180.641 228.051 180.966 228.051 180.966L226.475 190.677Z" fill="#A64C4B"/>
<path d="M228.979 196.183L228.631 196.208C227.453 196.292 226.421 195.401 226.335 194.224L225.852 187.588C225.767 186.41 226.658 185.379 227.836 185.292L228.184 185.267C229.362 185.183 230.393 186.074 230.48 187.251L231.881 193.56C231.966 194.737 230.155 196.098 228.979 196.183Z" fill="#ED5353"/>
<path d="M226.114 191.171C226.114 191.171 228.914 191.5 231 188.989C231 188.989 228.84 192.921 226.25 193.026L226.114 191.171Z" fill="#BA4141"/>
<path d="M232.368 190.428C232.368 190.428 235.095 194.427 229.323 196.914C229.323 196.914 227.001 198.961 226.76 201.396C226.76 201.396 228.734 200.079 229.874 199.367C231.015 198.655 239.444 194.32 232.368 190.428Z" fill="#27427A"/>
<path d="M229.372 185.199C229.882 181.677 228.678 178.587 226.681 178.297C224.685 178.008 222.653 180.63 222.143 184.153C221.632 187.675 222.837 190.765 224.834 191.054C226.83 191.344 228.862 188.722 229.372 185.199Z" fill="#ED5353"/>
<path d="M231.336 188.908C229.72 191.533 224.483 192.389 223.206 190.022C221.928 187.655 224.089 182.933 225.705 180.306C227.322 177.681 229.668 177.469 230.948 179.836C232.225 182.201 232.953 186.281 231.336 188.908Z" fill="#ED5353"/>
<path d="M229.31 181.447C229.31 181.447 227.662 186.924 231.865 188.978C231.865 188.978 237.385 186.995 234.689 180.949C232.312 175.62 226.475 178.291 226.475 178.291L229.31 181.447Z" fill="#A64C4B"/>
<path d="M222.17 184.049C222.17 184.049 223.196 181.759 226.294 181.274L224.243 179.486C224.243 179.484 221.797 179.598 222.17 184.049Z" fill="#A64C4B"/>
<path d="M231.034 185.152C230.299 183.668 228.219 183.306 225.072 183.837C224.593 183.918 224.095 183.907 223.645 183.726C221.53 182.877 221.691 180.092 221.691 180.092C221.547 178.185 222.9 177.581 224.807 177.437L229.772 177.059C232.583 176.83 234.785 179.505 234.929 181.412L234.999 181.734C235.145 183.639 232.939 185.007 231.034 185.152Z" fill="#A64C4B"/>
<path d="M232.393 188.897C232 189.535 231.163 189.734 230.524 189.341C229.885 188.949 229.687 188.111 230.08 187.472C230.472 186.834 231.309 186.635 231.948 187.028C232.587 187.421 232.787 188.258 232.393 188.897Z" fill="#ED5353"/>
<path d="M235.254 290.002L235.576 293.834C235.614 294.286 236.055 296.672 236.247 297.082C236.805 298.269 237.721 298.749 238.605 298.808C239.779 298.889 242.136 296.813 241.295 294.24C240.562 291.996 239.769 289.631 239.769 289.631C238.112 290.391 236.575 290.654 235.254 290.002Z" fill="#27427A"/>
<path d="M234.275 240.773C235.083 241.33 236.197 241.124 236.754 240.315L238.686 237.508C239.242 236.701 239.036 235.585 238.228 235.031C237.419 234.475 236.305 234.681 235.749 235.489L233.817 238.297C233.263 239.101 233.469 240.217 234.275 240.773Z" fill="#ED5353"/>
<path d="M231.479 203.794C231.479 203.794 245.598 214.798 243.997 218.633C242.396 222.468 235.281 234.538 235.281 234.538L239.781 237.084C239.781 237.084 254.231 221.531 253.036 216.974C251.539 211.266 240.576 197.701 240.576 197.701L231.479 203.794Z" fill="#94B7E0"/>
<path d="M194.228 171.694L192.956 171.996C192.956 171.996 197.386 197.499 201.577 199.654C204.412 201.113 211.465 201.394 215.731 201.423L215.712 197.699C215.712 197.699 206.688 198.013 203.569 196.685C200.832 195.521 195.217 175.803 194.228 171.694Z" fill="#628FC4"/>
<path d="M224.687 189.868C224.095 189.638 223.614 188.687 223.614 187.746L225.759 188.585C225.761 189.526 225.28 190.101 224.687 189.868Z" fill="white"/>
<path d="M24.1813 228.424C24.1813 228.424 23.0748 220.628 15.7485 238.785C14.2648 242.461 6.97119 262.629 6.97119 262.629L11.9458 262.812C11.9458 262.812 19.963 245.505 21.8047 241.58C24.4585 235.918 29.3869 231.218 29.3908 229.038C29.3946 226.858 24.1813 228.424 24.1813 228.424Z" fill="#5CA7FF"/>
<path opacity="0.4" d="M41.3742 321.32C35.5624 319.146 25.6766 319.076 19.2933 321.166C16.2065 322.177 14.5072 323.507 14.2301 324.856C13.9684 324.738 13.6855 324.625 13.3641 324.519C10.1561 323.47 5.18916 323.505 2.26788 324.596C-0.65148 325.689 -0.418624 327.425 2.7894 328.473C5.99742 329.522 10.9644 329.488 13.8856 328.396C14.6419 328.114 15.1827 327.786 15.5195 327.44C16.1834 327.958 17.0917 328.446 18.2579 328.881C24.0697 331.056 33.9555 331.125 40.3388 329.035C46.7222 326.949 47.1859 323.495 41.3742 321.32Z" fill="#A8C4E5"/>
<path d="M9.57889 316.393C9.28638 318.924 6.02832 316.563 6.02832 314.635C10.0869 301.579 14.4227 290.997 19.457 286.634L20.6771 258.911L36.1475 254.55L28.5441 290.62L9.57889 316.393Z" fill="#ED5353"/>
<path d="M34.8676 321.994L38.5452 323.273C41.3818 323.372 42.8559 323.118 43.5929 324.226L43.8027 324.54C44.5397 325.646 43.999 326.224 42.3574 326.73L34.9619 328.406C32.8046 328.885 32.2542 328.173 31.7154 326.868C31.7154 326.868 31.3805 325.238 32.8604 323.277C33.6994 322.155 33.6417 322.071 34.8676 321.994Z" fill="#27427A"/>
<path d="M37.1539 323.71C36.3457 325.754 32.8047 325.308 32.8644 323.63C29.1329 297.835 31.6809 296.28 31.5846 290.651C31.4769 284.362 30.2587 277.58 25.7998 265.658L29.8103 266.299C36.1975 267.321 40.9085 272.807 40.9662 279.275C41.1086 295.294 40.335 307.973 37.1539 323.71Z" fill="#ED5353"/>
<path d="M39.5228 255.641L41.9149 289.428C41.9149 289.428 29.9699 299.668 15.2827 286.944C18.5004 282.345 18.8987 276.485 18.4561 270.252C17.1475 264.392 18.6312 259.573 20.3132 255.36L39.5228 255.641Z" fill="#27427A"/>
<path d="M31.7856 227.007C34.0592 226.24 34.8043 222.365 33.4498 218.354C32.0953 214.342 29.1541 211.712 26.8804 212.48C24.6068 213.248 23.8617 217.122 25.2162 221.134C26.5708 225.145 29.512 227.775 31.7856 227.007Z" fill="#FFC2B0"/>
<path d="M37.7003 221.225C37.3982 224.881 33.9419 226.871 31.3112 225.049C28.6805 223.226 26.7946 218.787 27.0967 215.13C27.3989 211.474 29.7755 209.988 32.4043 211.811C35.0331 213.633 38.0025 217.569 37.7003 221.225Z" fill="#ED5353"/>
<path d="M29.6044 233.029L29.208 232.941C27.8705 232.643 27.0199 231.305 27.3182 229.968L29.0001 222.428C29.2984 221.09 30.6359 220.24 31.9734 220.538L32.3698 220.626C33.7073 220.925 34.5579 222.262 34.2596 223.6L33.7092 231.082C33.4109 232.421 30.9419 233.328 29.6044 233.029Z" fill="#ED5353"/>
<path d="M26.4559 223.987C26.4559 223.987 26.504 226.469 30.7358 225.865C34.1209 225.382 31.9174 219.526 35.1274 218.321C38.6606 216.997 38.4201 212.353 36.6361 210.91C34.8522 209.467 30.6492 209.365 27.9935 211.229C25.3378 213.096 19.4086 215.255 26.4559 223.987Z" fill="#27427A"/>
<path d="M35.5161 220.195C35.443 221.084 34.6636 221.745 33.7745 221.671C32.8855 221.598 32.2254 220.819 32.2985 219.93C32.3716 219.041 33.151 218.381 34.0401 218.454C34.9273 218.525 35.5893 219.306 35.5161 220.195Z" fill="#ED5353"/>
<path d="M20.3152 255.359C20.3152 249.426 20.5095 248.163 19.4877 241.42C19.1451 239.159 19.3087 238.485 19.0835 236.209C18.6852 232.208 20.4653 224.926 27.0661 226.825L27.6607 227.241C28.6325 227.499 29.5755 227.859 30.4684 228.318C40.1117 233.291 43.7489 233.878 42.2575 240C41.8476 244.584 38.0969 245.9 39.5248 255.64C37.5426 262.183 22.5129 260.041 20.3152 255.359Z" fill="#5CA7FF"/>
<path d="M34.2096 225.653L33.6611 224.86C33.6611 224.86 34.4636 225.395 35.703 224.978C35.703 224.98 35.039 225.559 34.2096 225.653Z" fill="#BA4141"/>
<path d="M27.6011 226.292C26.8025 226.099 26.0673 226.8 26.204 227.61C26.356 228.509 26.9045 229.585 28.546 230.141C30.8188 230.911 33.3147 230.497 34.5156 230.212C34.8004 230.145 34.8562 229.767 34.6079 229.613C33.2551 228.778 30.0086 226.873 27.6011 226.292Z" fill="#F5D6CE"/>
<path d="M9.55951 316.611L8.7243 320.445C8.97063 323.295 9.4017 324.736 8.38368 325.608L8.09502 325.854C7.07699 326.724 6.01279 326.193 5.7299 324.672L3.34745 317.762C3.06456 316.242 3.89976 314.929 5.14102 314.232C5.14102 314.232 6.2264 313.605 8.03536 314.756C9.22658 315.514 9.33435 315.395 9.55951 316.611Z" fill="#27427A"/>
<path d="M26.4002 215.265C26.4002 215.265 22.738 210.714 19.4588 216.339C16.1796 221.964 18.0039 228.605 13.3391 231.85C13.3391 231.85 21.4987 231.956 22.4128 226.781C23.325 221.606 22.8381 217.241 25.7613 217.101C28.6864 216.962 26.4002 215.265 26.4002 215.265Z" fill="#27427A"/>
<path d="M35.0427 325.073L39.7479 324.801C40.308 324.751 40.4484 323.997 39.9442 323.749L36.9999 321.994L35.0427 325.073Z" fill="#ED5353"/>
<path d="M6.92871 314.2C6.92871 314.2 8.11608 319.723 8.7242 320.442L9.87886 315.72L9.0629 312.949L6.92871 314.2Z" fill="#ED5353"/>
<path d="M18.1809 268.756C18.1809 268.756 19.8532 271.766 21.0887 271.859C21.0887 271.859 19.478 271.997 18.5273 271.354L18.1809 268.756Z" fill="#223A6B"/>
<path d="M41.9149 289.429L39.5229 255.641L35.1794 258.195C35.1794 258.195 38.7473 288.164 36.0281 292.465C36.03 292.465 38.9609 291.805 41.9149 289.429Z" fill="#223A6B"/>
<path d="M54.8257 221.929C53.4806 221.879 52.3375 222.938 52.2855 224.283L52.2181 226.047C52.1662 227.395 53.2265 228.538 54.5736 228.588C55.9188 228.638 57.0619 227.579 57.1139 226.234L57.1812 224.469C57.2332 223.122 56.1728 221.979 54.8257 221.929Z" fill="#ED5353"/>
<path d="M39.5229 255.641C39.5229 255.641 39.0283 249.716 39.8231 247.986C40.6179 246.256 43.7778 238.891 43.7778 238.891L41.9169 236.599C39.8712 240.177 35.6182 240.452 35.1487 259.286C35.1487 259.286 39.0379 258.411 39.5229 255.641Z" fill="#4F94E3"/>
<path d="M41.7456 234.956L48.456 243.52L52.6859 228.422L57.2045 227.562C57.2045 227.562 56.6772 251.033 51.6294 253.325C46.9204 255.463 37.3059 241.212 37.3059 241.212L41.7456 234.956Z" fill="#5CA7FF"/>
<path d="M53.2613 225.257C52.7859 225.257 52.3953 224.868 52.3953 224.391V219.249C52.3953 218.773 52.784 218.383 53.2613 218.383C53.7366 218.383 54.1272 218.771 54.1272 219.249V224.391C54.1272 224.868 53.7366 225.257 53.2613 225.257Z" fill="#ED5353"/>
<path d="M10.9297 262.327L10.4543 261.902C9.58258 261.12 8.22778 261.195 7.44646 262.067L5.84341 263.857C5.0621 264.73 5.13715 266.083 6.00891 266.865L6.48425 267.29C7.35601 268.071 8.71081 267.996 9.49213 267.124L11.0952 265.335C11.8784 264.461 11.8034 263.108 10.9297 262.327Z" fill="#ED5353"/>
<path d="M203.528 113.066L210.123 110.085L247.94 150L239.844 153.591L203.528 113.066Z" fill="#ED5353"/>
<path d="M214.213 137.909L237.537 149.767C246.714 154.434 255.913 146.786 254.095 136.004L253.914 134.934C253.071 129.928 249.926 125.512 245.668 123.347L220.107 110.351C211.224 105.834 202.32 113.236 204.081 123.674C205.118 129.822 208.98 135.249 214.213 137.909Z" fill="#27427A"/>
<path d="M248.289 145.262L246.46 161.945C246.308 163.338 244.638 163.84 243.674 162.784L230.707 148.589L248.289 145.262Z" fill="#27427A"/>
<path d="M207.722 140.84L231.046 152.698C240.223 157.365 249.422 149.717 247.603 138.934L247.423 137.864C246.58 132.859 243.435 128.442 239.176 126.278L213.616 113.282C204.733 108.765 195.829 116.167 197.589 126.605C198.625 132.751 202.487 138.178 207.722 140.84Z" fill="#EDF4FF"/>
<path d="M207.722 140.84L231.046 152.698C240.223 157.365 249.422 149.717 247.603 138.934L247.423 137.864C246.58 132.859 243.435 128.442 239.176 126.278L213.616 113.282C204.733 108.765 195.829 116.167 197.589 126.605C198.625 132.751 202.487 138.178 207.722 140.84Z" stroke="#27427A" stroke-width="5.3333" stroke-miterlimit="10" stroke-linecap="round" stroke-linejoin="round"/>
<path d="M236.426 143.046C237.926 142.268 238.047 139.527 236.696 136.924C235.346 134.322 233.035 132.843 231.535 133.621C230.035 134.399 229.914 137.14 231.264 139.743C232.615 142.346 234.926 143.825 236.426 143.046Z" fill="#27427A"/>
<path d="M224.487 137.406C225.987 136.628 226.108 133.887 224.758 131.284C223.407 128.681 221.096 127.202 219.596 127.981C218.096 128.759 217.975 131.5 219.326 134.103C220.676 136.705 222.987 138.184 224.487 137.406Z" fill="#27427A"/>
<path d="M213.704 132.375C215.204 131.596 215.325 128.856 213.975 126.253C212.624 123.65 210.313 122.171 208.813 122.949C207.313 123.728 207.192 126.469 208.543 129.071C209.893 131.674 212.204 133.153 213.704 132.375Z" fill="#27427A"/>
<path d="M324.307 224.812L349.835 210.254" stroke="white" stroke-miterlimit="10"/>
<path d="M118.973 224.056L135.817 215.404" stroke="white" stroke-miterlimit="10"/>
<defs>
<linearGradient id="paint0_linear" x1="94.3009" y1="276.245" x2="153.187" y2="197.685" gradientUnits="userSpaceOnUse">
<stop stop-color="#FCCB52"/>
<stop offset="0.6147" stop-color="#E09628"/>
</linearGradient>
<linearGradient id="paint1_linear" x1="241.536" y1="154.763" x2="417.668" y2="154.763" gradientUnits="userSpaceOnUse">
<stop stop-color="#4F80E3"/>
<stop offset="0.3079" stop-color="#406AC8"/>
<stop offset="0.7252" stop-color="#2F51A8"/>
<stop offset="0.957" stop-color="#29479C"/>
</linearGradient>
</defs>
</svg>
