<?xml version="1.0" encoding="utf-8"?>
<!-- Generator: Adobe Illustrator 24.1.1, SVG Export Plug-In . SVG Version: 6.00 Build 0)  -->
<svg version="1.1" id="katman_1" xmlns="http://www.w3.org/2000/svg" xmlns:xlink="http://www.w3.org/1999/xlink" x="0px" y="0px"
	 viewBox="0 0 100 35" style="enable-background:new 0 0 100 35;" xml:space="preserve">
<style type="text/css">
	.st0{fill:#FFFFFF;}
	.st1{fill:url(#SVGID_1_);}
</style>
<path class="st0" d="M43.8,22H36c-0.2,0-0.4,0.1-0.5,0.3l-1.4,3.3c-0.1,0.2-0.3,0.3-0.5,0.3h-2.1c-0.3,0-0.5-0.2-0.5-0.5
	c0-0.1,0-0.1,0-0.2l7.1-15.9C38.2,9.1,38.4,9,38.6,9H41c0.2,0,0.4,0.1,0.5,0.3l7.2,15.9c0.1,0.3,0,0.6-0.3,0.7c-0.1,0-0.1,0-0.2,0
	H46c-0.2,0-0.4-0.1-0.5-0.3l-1.4-3.3C44.2,22.1,44,22,43.8,22z M42.8,18.8l-2.4-5.6C40.3,13,40,12.9,39.7,13
	c-0.1,0.1-0.2,0.1-0.3,0.3L37,18.9c-0.1,0.3,0,0.5,0.3,0.7c0.1,0,0.1,0,0.2,0h4.8c0.3,0,0.5-0.2,0.5-0.5
	C42.8,19,42.8,18.9,42.8,18.8L42.8,18.8z"/>
<path class="st0" d="M52.2,25.3c-1-0.5-1.9-1.3-2.5-2.4c-1.2-2.1-1.2-4.7,0-6.8c0.6-1,1.5-1.8,2.5-2.3c1.1-0.6,2.4-0.9,3.6-0.8
	c1.2,0,2.3,0.2,3.3,0.8c0.8,0.4,1.4,1,1.9,1.8c0.2,0.2,0.1,0.5-0.1,0.7l0,0L59.4,17c-0.2,0.1-0.5,0.1-0.7-0.1
	c-0.3-0.4-0.7-0.8-1.1-1c-0.6-0.3-1.2-0.4-1.8-0.4c-1,0-2.1,0.4-2.8,1.1c-0.8,0.8-1.2,1.8-1.1,2.9c-0.1,1.1,0.4,2.2,1.1,3
	c1.2,1.2,3.1,1.5,4.6,0.6c0.4-0.2,0.8-0.6,1.1-1c0.2-0.2,0.4-0.3,0.7-0.1l1.5,0.9c0.2,0.1,0.3,0.4,0.2,0.7l0,0
	c-0.5,0.7-1.1,1.4-1.9,1.8c-1,0.5-2.2,0.8-3.3,0.8C54.6,26.1,53.3,25.8,52.2,25.3z"/>
<path class="st0" d="M65,25.3c-1-0.5-1.9-1.4-2.5-2.4s-0.9-2.2-0.9-3.4c0-1.2,0.3-2.4,0.9-3.4c0.6-1,1.4-1.8,2.5-2.3
	c1.1-0.6,2.3-0.9,3.5-0.8c1.2,0,2.5,0.3,3.6,0.8c1,0.5,1.9,1.4,2.4,2.3c1.2,2.1,1.2,4.7,0,6.8c-0.6,1-1.4,1.8-2.4,2.4
	c-1.1,0.6-2.3,0.9-3.6,0.9C67.3,26.1,66.1,25.8,65,25.3z M71.3,22.4c0.7-0.8,1.1-1.8,1.1-2.9s-0.3-2.1-1.1-2.9c-1.5-1.5-4-1.5-5.5,0
	c-0.7,0.8-1.1,1.8-1.1,2.9s0.3,2.1,1.1,2.9C67.3,23.9,69.7,23.9,71.3,22.4z"/>
<path class="st0" d="M84.8,13.4v1.8c0,0.3-0.2,0.5-0.5,0.5l0,0h-0.2c-1-0.1-2,0.3-2.8,1c-0.7,0.8-1.1,1.9-1,3v5.7
	c0,0.3-0.2,0.5-0.5,0.5l0,0h-2c-0.3,0-0.5-0.2-0.5-0.5l0,0V13.6c0-0.3,0.2-0.5,0.5-0.5h1.9c0.3,0,0.5,0.2,0.5,0.5l0,0v0.1
	c0,0.3,0.2,0.5,0.5,0.5c0.1,0,0.2,0,0.3-0.1c0.9-0.7,2.1-1.1,3.2-1.1C84.5,12.9,84.8,13.1,84.8,13.4L84.8,13.4z"/>
<path class="st0" d="M97.6,14.3c1.1,1.1,1.6,2.7,1.5,4.2v6.9c0,0.3-0.2,0.5-0.5,0.5l0,0h-2c-0.3,0-0.5-0.2-0.5-0.5l0,0v-6.5
	c0.1-0.9-0.2-1.8-0.8-2.5c-0.6-0.6-1.4-0.9-2.3-0.9c-1-0.1-1.9,0.3-2.6,1c-0.7,0.8-1.1,1.8-1,2.9v6c0,0.3-0.2,0.5-0.5,0.5l0,0h-2
	c-0.3,0-0.5-0.2-0.5-0.5l0,0V13.6c0-0.3,0.2-0.5,0.5-0.5l0,0h1.9c0.3,0,0.5,0.2,0.5,0.5l0,0c0,0.3,0.2,0.5,0.5,0.5
	c0.1,0,0.2,0,0.3-0.1c0.3-0.2,0.7-0.4,1.1-0.6c0.8-0.3,1.7-0.5,2.6-0.5C95.1,12.8,96.5,13.3,97.6,14.3z"/>
<linearGradient id="SVGID_1_" gradientUnits="userSpaceOnUse" x1="0.6" y1="-712.228" x2="25.6" y2="-712.228" gradientTransform="matrix(1 0 0 -1 0 -696)">
	<stop  offset="0" style="stop-color:#2499E3"/>
	<stop  offset="0.333" style="stop-color:#259DE5"/>
	<stop  offset="0.6325" style="stop-color:#2AA7EB"/>
	<stop  offset="0.8959" style="stop-color:#30B8F4"/>
</linearGradient>
<path class="st1" d="M21.2,5.2c-1.8-0.4-4.2-0.9-6.6-1V3.7c0-0.2,0.2-0.4,0.4-0.5l0.5-0.1c0.8-0.2,1.3-1,1.1-1.8
	c-0.2-0.8-1-1.3-1.8-1.1l-0.5,0.1c-1.6,0.4-2.7,1.8-2.7,3.4v0.5C9.2,4.3,6.8,4.8,5,5.2c-2.6,0.6-4.4,2.9-4.4,5.6v1
	c0,1.6,0.7,3.2,2,4.3l0.7,7.4C3.5,26,4.9,28.3,7,29.7L8.9,31c1.3,0.9,2.8,1.3,4.2,1.3s3-0.4,4.2-1.3l1.9-1.3
	c2.1-1.4,3.4-3.7,3.7-6.2l0.7-7.4c1.3-1.1,2-2.7,2-4.3v-1C25.6,8.1,23.8,5.8,21.2,5.2z M3.6,10.8c0-1.3,0.8-2.4,2-2.7
	c2-0.4,4.9-1,7.5-1s5.5,0.5,7.5,1c1.2,0.3,2,1.4,2,2.7v1c0,1.1-0.6,1.8-1,2.1c-0.8,0.6-1.8,0.9-2.7,0.6c-2.1-0.5-4.1-0.7-5.7-0.7
	S9.6,14,7.5,14.5c-0.9,0.2-2,0-2.7-0.6c-0.4-0.3-1-1-1-2.1v-1C3.8,10.8,3.6,10.8,3.6,10.8z M17.6,27.3l-1.9,1.3c-1.5,1-3.6,1-5.1,0
	l-1.9-1.3c-1.4-0.9-2.2-2.4-2.4-4l-0.5-5.7c0.7,0.1,1.5,0.1,2.2-0.1c1.9-0.4,3.6-0.6,5.1-0.6s3.2,0.2,5.1,0.6
	c0.4,0.1,0.9,0.1,1.3,0.1c0.3,0,0.6,0,0.9-0.1l-0.5,5.7C19.8,24.9,18.9,26.3,17.6,27.3z"/>
</svg>
